<svg width="212" height="70" viewBox="0 0 212 70" fill="none" xmlns="http://www.w3.org/2000/svg">
<path fillRule="evenodd" clipRule="evenodd" d="M102.851 27.2052C104.548 21.6067 100.358 15.953 94.5076 15.953L94.0399 15.9533H83.3318C81.8522 15.9294 81.4775 14.9758 81.7996 13.9232L82.2046 12.5029C82.5413 11.4376 83.3158 10.4552 84.6741 10.4836H104.941L109.339 0.843384H81.0553C75.8875 1.07667 72.4748 4.70215 71.5697 8.79457L69.5447 15.7891L69.5369 15.8178C67.9744 21.2902 71.875 25.5958 77.5209 25.5958L77.9282 25.6036H89.7389C90.703 25.6155 91.4342 25.947 91.0725 27.2168L90.32 29.8565C89.9509 31.0972 89.1211 31.4862 88.1081 31.5254H66.0906L63.3494 41.1562L91.9381 41.1551C95.4553 41.0834 99.7993 37.7319 100.814 34.3595L102.851 27.2052ZM105.88 31.379C104.317 36.851 108.218 41.1566 113.864 41.1566L132.245 41.1558C135.783 41.1558 140.153 37.7521 141.179 34.3427L142.987 28.0593H131.909L131.316 29.8752C130.988 30.97 130.237 31.4899 128.973 31.4918H119.727C118.23 31.4918 117.795 30.6269 118.109 29.4743L122.893 12.7825C123.269 11.457 123.981 10.4772 125.479 10.4772H135.021C136.289 10.4772 136.738 10.9968 136.425 12.0916L135.733 14.613H146.808L147.526 12.0897C149.224 6.49118 145.033 0.843384 139.183 0.843384H122.119C117.662 0.843384 113.744 3.79736 112.519 8.08351L105.88 31.379ZM54.0645 12.2763L45.8345 41.1565H57.8527L69.3424 0.844065H48.2398L35.0849 22.9064L36.7967 0.844065H17.4103L0 41.1562L11.9163 41.1565L24.9692 12.2763L23.0033 41.1565H35.1241L54.0645 12.2763Z" fill="#FF3333"/>
<path d="M1.17969 64V52.5469H9.03125V54.4844H3.49219V57.1953H8.27344V59.1328H3.49219V64H1.17969ZM16.3906 64V62.7578C16.0885 63.2005 15.6901 63.5495 15.1953 63.8047C14.7057 64.0599 14.1875 64.1875 13.6406 64.1875C13.0833 64.1875 12.5833 64.0651 12.1406 63.8203C11.6979 63.5755 11.3776 63.2318 11.1797 62.7891C10.9818 62.3464 10.8828 61.7344 10.8828 60.9531V55.7031H13.0781V59.5156C13.0781 60.6823 13.1172 61.3984 13.1953 61.6641C13.2786 61.9245 13.4271 62.1328 13.6406 62.2891C13.8542 62.4401 14.125 62.5156 14.4531 62.5156C14.8281 62.5156 15.1641 62.4141 15.4609 62.2109C15.7578 62.0026 15.9609 61.7474 16.0703 61.4453C16.1797 61.138 16.2344 60.3906 16.2344 59.2031V55.7031H18.4297V64H16.3906ZM25.5156 61.3594L27.7031 61.7266C27.4219 62.5286 26.9766 63.1406 26.3672 63.5625C25.763 63.9792 25.0052 64.1875 24.0938 64.1875C22.651 64.1875 21.5833 63.7161 20.8906 62.7734C20.3438 62.0182 20.0703 61.0651 20.0703 59.9141C20.0703 58.5391 20.4297 57.4635 21.1484 56.6875C21.8672 55.9062 22.776 55.5156 23.875 55.5156C25.1094 55.5156 26.0833 55.9245 26.7969 56.7422C27.5104 57.5547 27.8516 58.8021 27.8203 60.4844H22.3203C22.3359 61.1354 22.513 61.6432 22.8516 62.0078C23.1901 62.3672 23.612 62.5469 24.1172 62.5469C24.4609 62.5469 24.75 62.4531 24.9844 62.2656C25.2188 62.0781 25.3958 61.776 25.5156 61.3594ZM25.6406 59.1406C25.625 58.5052 25.4609 58.0234 25.1484 57.6953C24.8359 57.362 24.4557 57.1953 24.0078 57.1953C23.5286 57.1953 23.1328 57.3698 22.8203 57.7188C22.5078 58.0677 22.3542 58.5417 22.3594 59.1406H25.6406ZM29.6172 64V52.5469H31.8125V64H29.6172ZM38.5312 52.5469H42.7578C43.7109 52.5469 44.4375 52.6198 44.9375 52.7656C45.6094 52.9635 46.1849 53.3151 46.6641 53.8203C47.1432 54.3255 47.5078 54.9453 47.7578 55.6797C48.0078 56.4089 48.1328 57.3099 48.1328 58.3828C48.1328 59.3255 48.0156 60.138 47.7812 60.8203C47.4948 61.6536 47.0859 62.3281 46.5547 62.8438C46.1536 63.2344 45.612 63.5391 44.9297 63.7578C44.4193 63.9193 43.737 64 42.8828 64H38.5312V52.5469ZM40.8438 54.4844V62.0703H42.5703C43.2161 62.0703 43.6823 62.0339 43.9688 61.9609C44.3438 61.8672 44.6536 61.7083 44.8984 61.4844C45.1484 61.2604 45.3516 60.8932 45.5078 60.3828C45.6641 59.8672 45.7422 59.1667 45.7422 58.2812C45.7422 57.3958 45.6641 56.7161 45.5078 56.2422C45.3516 55.7682 45.1328 55.3984 44.8516 55.1328C44.5703 54.8672 44.2135 54.6875 43.7812 54.5938C43.4583 54.5208 42.8255 54.4844 41.8828 54.4844H40.8438ZM54.8906 61.3594L57.0781 61.7266C56.7969 62.5286 56.3516 63.1406 55.7422 63.5625C55.138 63.9792 54.3802 64.1875 53.4688 64.1875C52.026 64.1875 50.9583 63.7161 50.2656 62.7734C49.7188 62.0182 49.4453 61.0651 49.4453 59.9141C49.4453 58.5391 49.8047 57.4635 50.5234 56.6875C51.2422 55.9062 52.151 55.5156 53.25 55.5156C54.4844 55.5156 55.4583 55.9245 56.1719 56.7422C56.8854 57.5547 57.2266 58.8021 57.1953 60.4844H51.6953C51.7109 61.1354 51.888 61.6432 52.2266 62.0078C52.5651 62.3672 52.987 62.5469 53.4922 62.5469C53.8359 62.5469 54.125 62.4531 54.3594 62.2656C54.5938 62.0781 54.7708 61.776 54.8906 61.3594ZM55.0156 59.1406C55 58.5052 54.8359 58.0234 54.5234 57.6953C54.2109 57.362 53.8307 57.1953 53.3828 57.1953C52.9036 57.1953 52.5078 57.3698 52.1953 57.7188C51.8828 58.0677 51.7292 58.5417 51.7344 59.1406H55.0156ZM58.2188 61.6328L60.4219 61.2969C60.5156 61.724 60.7057 62.0495 60.9922 62.2734C61.2786 62.4922 61.6797 62.6016 62.1953 62.6016C62.763 62.6016 63.1901 62.4974 63.4766 62.2891C63.6693 62.1432 63.7656 61.9479 63.7656 61.7031C63.7656 61.5365 63.7135 61.3984 63.6094 61.2891C63.5 61.1849 63.2552 61.0885 62.875 61C61.1042 60.6094 59.9818 60.2526 59.5078 59.9297C58.8516 59.4818 58.5234 58.8594 58.5234 58.0625C58.5234 57.3438 58.8073 56.7396 59.375 56.25C59.9427 55.7604 60.8229 55.5156 62.0156 55.5156C63.151 55.5156 63.9948 55.7005 64.5469 56.0703C65.099 56.4401 65.4792 56.987 65.6875 57.7109L63.6172 58.0938C63.5286 57.7708 63.3594 57.5234 63.1094 57.3516C62.8646 57.1797 62.513 57.0938 62.0547 57.0938C61.4766 57.0938 61.0625 57.1745 60.8125 57.3359C60.6458 57.4505 60.5625 57.599 60.5625 57.7812C60.5625 57.9375 60.6354 58.0703 60.7812 58.1797C60.9792 58.3255 61.6615 58.5312 62.8281 58.7969C64 59.0625 64.8177 59.388 65.2812 59.7734C65.7396 60.1641 65.9688 60.7083 65.9688 61.4062C65.9688 62.1667 65.651 62.8203 65.0156 63.3672C64.3802 63.9141 63.4401 64.1875 62.1953 64.1875C61.0651 64.1875 60.1693 63.9583 59.5078 63.5C58.8516 63.0417 58.4219 62.4193 58.2188 61.6328ZM67.8984 54.5781V52.5469H70.0938V54.5781H67.8984ZM67.8984 64V55.7031H70.0938V64H67.8984ZM72.1484 64.5469L74.6562 64.8516C74.6979 65.1432 74.7943 65.3438 74.9453 65.4531C75.1536 65.6094 75.4818 65.6875 75.9297 65.6875C76.5026 65.6875 76.9323 65.6016 77.2188 65.4297C77.4115 65.3151 77.5573 65.1302 77.6562 64.875C77.724 64.6927 77.7578 64.3568 77.7578 63.8672V62.6562C77.1016 63.5521 76.2734 64 75.2734 64C74.1589 64 73.276 63.5286 72.625 62.5859C72.1146 61.8411 71.8594 60.9141 71.8594 59.8047C71.8594 58.4141 72.1927 57.3516 72.8594 56.6172C73.5312 55.8828 74.3646 55.5156 75.3594 55.5156C76.3854 55.5156 77.2318 55.9661 77.8984 56.8672V55.7031H79.9531V63.1484C79.9531 64.1276 79.8724 64.8594 79.7109 65.3438C79.5495 65.8281 79.3229 66.2083 79.0312 66.4844C78.7396 66.7604 78.349 66.9766 77.8594 67.1328C77.375 67.2891 76.7604 67.3672 76.0156 67.3672C74.6094 67.3672 73.612 67.125 73.0234 66.6406C72.4349 66.1615 72.1406 65.5521 72.1406 64.8125C72.1406 64.7396 72.1432 64.651 72.1484 64.5469ZM74.1094 59.6797C74.1094 60.5599 74.2786 61.2057 74.6172 61.6172C74.9609 62.0234 75.3828 62.2266 75.8828 62.2266C76.4193 62.2266 76.8724 62.0182 77.2422 61.6016C77.612 61.1797 77.7969 60.5573 77.7969 59.7344C77.7969 58.875 77.6198 58.237 77.2656 57.8203C76.9115 57.4036 76.4635 57.1953 75.9219 57.1953C75.3958 57.1953 74.9609 57.401 74.6172 57.8125C74.2786 58.2188 74.1094 58.8411 74.1094 59.6797ZM89.6797 64H87.4844V59.7656C87.4844 58.8698 87.4375 58.2917 87.3438 58.0312C87.25 57.7656 87.0964 57.5599 86.8828 57.4141C86.6745 57.2682 86.4219 57.1953 86.125 57.1953C85.7448 57.1953 85.4036 57.2995 85.1016 57.5078C84.7995 57.7161 84.5911 57.9922 84.4766 58.3359C84.3672 58.6797 84.3125 59.3151 84.3125 60.2422V64H82.1172V55.7031H84.1562V56.9219C84.8802 55.9844 85.7917 55.5156 86.8906 55.5156C87.375 55.5156 87.8177 55.6042 88.2188 55.7812C88.6198 55.9531 88.9219 56.1745 89.125 56.4453C89.3333 56.7161 89.4766 57.0234 89.5547 57.3672C89.638 57.7109 89.6797 58.2031 89.6797 58.8438V64ZM95.7969 60.2734L98.0469 60.0547C98.1823 60.8099 98.4557 61.3646 98.8672 61.7188C99.2839 62.0729 99.8438 62.25 100.547 62.25C101.292 62.25 101.852 62.0938 102.227 61.7812C102.607 61.4635 102.797 61.0938 102.797 60.6719C102.797 60.401 102.716 60.1719 102.555 59.9844C102.398 59.7917 102.122 59.625 101.727 59.4844C101.456 59.3906 100.839 59.224 99.875 58.9844C98.6354 58.6771 97.7656 58.2995 97.2656 57.8516C96.5625 57.2214 96.2109 56.4531 96.2109 55.5469C96.2109 54.9635 96.375 54.4193 96.7031 53.9141C97.0365 53.4036 97.513 53.0156 98.1328 52.75C98.7578 52.4844 99.5104 52.3516 100.391 52.3516C101.828 52.3516 102.909 52.6667 103.633 53.2969C104.362 53.9271 104.745 54.7682 104.781 55.8203L102.469 55.9219C102.37 55.3333 102.156 54.9115 101.828 54.6562C101.505 54.3958 101.018 54.2656 100.367 54.2656C99.6953 54.2656 99.1693 54.4036 98.7891 54.6797C98.5443 54.8568 98.4219 55.0938 98.4219 55.3906C98.4219 55.6615 98.5365 55.8932 98.7656 56.0859C99.0573 56.3307 99.7656 56.5859 100.891 56.8516C102.016 57.1172 102.846 57.3932 103.383 57.6797C103.924 57.9609 104.346 58.349 104.648 58.8438C104.956 59.3333 105.109 59.9401 105.109 60.6641C105.109 61.3203 104.927 61.9349 104.562 62.5078C104.198 63.0807 103.682 63.5078 103.016 63.7891C102.349 64.0651 101.518 64.2031 100.523 64.2031C99.0755 64.2031 97.9635 63.8698 97.1875 63.2031C96.4115 62.5312 95.9479 61.5547 95.7969 60.2734ZM106 55.7031H108.336L110.32 61.5938L112.258 55.7031H114.531L111.602 63.6875L111.078 65.1328C110.885 65.6172 110.701 65.987 110.523 66.2422C110.352 66.4974 110.151 66.7031 109.922 66.8594C109.698 67.0208 109.419 67.1458 109.086 67.2344C108.758 67.3229 108.385 67.3672 107.969 67.3672C107.547 67.3672 107.133 67.3229 106.727 67.2344L106.531 65.5156C106.875 65.5833 107.185 65.6172 107.461 65.6172C107.971 65.6172 108.349 65.4661 108.594 65.1641C108.839 64.8672 109.026 64.487 109.156 64.0234L106 55.7031ZM115.172 61.6328L117.375 61.2969C117.469 61.724 117.659 62.0495 117.945 62.2734C118.232 62.4922 118.633 62.6016 119.148 62.6016C119.716 62.6016 120.143 62.4974 120.43 62.2891C120.622 62.1432 120.719 61.9479 120.719 61.7031C120.719 61.5365 120.667 61.3984 120.562 61.2891C120.453 61.1849 120.208 61.0885 119.828 61C118.057 60.6094 116.935 60.2526 116.461 59.9297C115.805 59.4818 115.477 58.8594 115.477 58.0625C115.477 57.3438 115.76 56.7396 116.328 56.25C116.896 55.7604 117.776 55.5156 118.969 55.5156C120.104 55.5156 120.948 55.7005 121.5 56.0703C122.052 56.4401 122.432 56.987 122.641 57.7109L120.57 58.0938C120.482 57.7708 120.312 57.5234 120.062 57.3516C119.818 57.1797 119.466 57.0938 119.008 57.0938C118.43 57.0938 118.016 57.1745 117.766 57.3359C117.599 57.4505 117.516 57.599 117.516 57.7812C117.516 57.9375 117.589 58.0703 117.734 58.1797C117.932 58.3255 118.615 58.5312 119.781 58.7969C120.953 59.0625 121.771 59.388 122.234 59.7734C122.693 60.1641 122.922 60.7083 122.922 61.4062C122.922 62.1667 122.604 62.8203 121.969 63.3672C121.333 63.9141 120.393 64.1875 119.148 64.1875C118.018 64.1875 117.122 63.9583 116.461 63.5C115.805 63.0417 115.375 62.4193 115.172 61.6328ZM128.656 55.7031V57.4531H127.156V60.7969C127.156 61.474 127.169 61.8698 127.195 61.9844C127.227 62.0938 127.292 62.1849 127.391 62.2578C127.495 62.3307 127.62 62.3672 127.766 62.3672C127.969 62.3672 128.263 62.2969 128.648 62.1562L128.836 63.8594C128.326 64.0781 127.747 64.1875 127.102 64.1875C126.706 64.1875 126.349 64.1224 126.031 63.9922C125.714 63.8568 125.479 63.6849 125.328 63.4766C125.182 63.263 125.081 62.9766 125.023 62.6172C124.977 62.362 124.953 61.8464 124.953 61.0703V57.4531H123.945V55.7031H124.953V54.0547L127.156 52.7734V55.7031H128.656ZM134.984 61.3594L137.172 61.7266C136.891 62.5286 136.445 63.1406 135.836 63.5625C135.232 63.9792 134.474 64.1875 133.562 64.1875C132.12 64.1875 131.052 63.7161 130.359 62.7734C129.812 62.0182 129.539 61.0651 129.539 59.9141C129.539 58.5391 129.898 57.4635 130.617 56.6875C131.336 55.9062 132.245 55.5156 133.344 55.5156C134.578 55.5156 135.552 55.9245 136.266 56.7422C136.979 57.5547 137.32 58.8021 137.289 60.4844H131.789C131.805 61.1354 131.982 61.6432 132.32 62.0078C132.659 62.3672 133.081 62.5469 133.586 62.5469C133.93 62.5469 134.219 62.4531 134.453 62.2656C134.688 62.0781 134.865 61.776 134.984 61.3594ZM135.109 59.1406C135.094 58.5052 134.93 58.0234 134.617 57.6953C134.305 57.362 133.924 57.1953 133.477 57.1953C132.997 57.1953 132.602 57.3698 132.289 57.7188C131.977 58.0677 131.823 58.5417 131.828 59.1406H135.109ZM138.922 55.7031H140.945V56.8359C141.669 55.9557 142.531 55.5156 143.531 55.5156C144.062 55.5156 144.523 55.625 144.914 55.8438C145.305 56.0625 145.625 56.3932 145.875 56.8359C146.24 56.3932 146.633 56.0625 147.055 55.8438C147.477 55.625 147.927 55.5156 148.406 55.5156C149.016 55.5156 149.531 55.6406 149.953 55.8906C150.375 56.1354 150.69 56.4974 150.898 56.9766C151.049 57.3307 151.125 57.9036 151.125 58.6953V64H148.93V59.2578C148.93 58.4349 148.854 57.9036 148.703 57.6641C148.5 57.3516 148.188 57.1953 147.766 57.1953C147.458 57.1953 147.169 57.2891 146.898 57.4766C146.628 57.6641 146.432 57.9401 146.312 58.3047C146.193 58.6641 146.133 59.2344 146.133 60.0156V64H143.938V59.4531C143.938 58.6458 143.898 58.125 143.82 57.8906C143.742 57.6562 143.62 57.4818 143.453 57.3672C143.292 57.2526 143.07 57.1953 142.789 57.1953C142.451 57.1953 142.146 57.2865 141.875 57.4688C141.604 57.651 141.409 57.9141 141.289 58.2578C141.174 58.6016 141.117 59.1719 141.117 59.9688V64H138.922V55.7031Z" fill="black"/>
</svg>
