<svg width="870" height="225" viewBox="0 0 870 225" fill="none" xmlns="http://www.w3.org/2000/svg">
<path d="M764.414 2.013L869.999 2.00601L869.996 137.803L855.61 137.847L855.614 151.974L750.008 151.996L750.012 16.192L764.352 16.186L764.414 2.013Z" fill="#060202"/>
<path d="M757.393 23.508L820.012 23.516L820.019 53.198C829.444 53.146 838.87 53.15 848.295 53.207L848.271 144.482C842.767 145.079 825.067 144.626 818.99 144.623L757.367 144.587L757.393 23.508Z" fill="white"/>
<path d="M771.712 9.40601C781.62 9.11301 792.916 9.364 802.916 9.362L862.632 9.40302L862.594 130.482L855.595 130.466L855.62 45.211C845.645 35.468 835.606 25.79 825.505 16.178L771.68 16.173L771.712 9.40601Z" fill="white"/>
<path d="M826.576 25.747C828.63 27.018 845.334 44.053 847.883 46.621C841.611 46.947 833.002 46.679 826.552 46.677L826.576 25.747Z" fill="white"/>
<path d="M124.869 57.007C128.024 62.625 130.199 69.772 131.187 76.114C133.954 93.43 129.654 111.132 119.251 125.248C108.898 139.286 93.3882 148.63 76.1392 151.22C58.4432 153.956 40.3922 149.436 26.0732 138.684C12.191 128.308 3.02758 112.816 0.619778 95.652C-1.78122 78.279 2.85298 60.667 13.4934 46.726C24.1166 32.901 39.7992 23.865 57.0882 21.608C77.1412 19.016 93.1132 24.52 108.842 36.528C113.925 36.225 117.799 36.559 121.82 40.177C124.555 42.615 126.185 46.057 126.337 49.718C126.463 52.277 125.827 54.654 124.869 57.007Z" fill="#060202"/>
<path d="M112.061 65.016C114.05 69.338 115.457 73.905 116.246 78.596C118.38 91.722 115.177 105.156 107.35 115.905C99.3762 126.86 87.3802 134.202 73.9972 136.319C60.3472 138.487 46.3992 135.052 35.3172 126.793C24.705 118.821 17.6473 107.002 15.6624 93.878C13.7146 80.682 17.0979 67.252 25.0662 56.554C33.2252 45.59 45.4482 38.364 58.9872 36.499C73.4422 34.572 86.4172 38.356 97.8762 47.216C96.8122 57.897 101.656 63.372 112.061 65.016Z" fill="white"/>
<path d="M63.4622 53.069C81.9312 51.665 98.0382 65.507 99.4292 83.977C100.82 102.447 86.9682 118.544 68.4972 119.923C50.0442 121.301 33.9642 107.465 32.5752 89.012C31.1852 70.559 45.0102 54.471 63.4622 53.069Z" fill="#1D4ED8"/>
<path d="M108.842 36.528C113.925 36.225 117.799 36.559 121.82 40.177C124.555 42.615 126.185 46.057 126.337 49.718C126.463 52.277 125.827 54.654 124.869 57.007C122.145 61.223 119.716 63.441 114.587 64.559C113.75 64.737 112.907 64.889 112.061 65.016C101.656 63.372 96.8122 57.897 97.8762 47.216C100.223 40.986 102.612 38.832 108.842 36.528Z" fill="#1D4ED8"/>
<path d="M379.928 34.093C388.787 33.738 392.526 36.525 397.118 43.849C399.291 40.365 400.585 38.345 404.19 36.216C407.851 34.031 412.239 33.415 416.36 34.508C421.829 35.957 424.596 39.318 427.322 43.939C429.392 40.162 431.647 37.457 435.579 35.528C439.366 33.69 443.734 33.451 447.699 34.866C452.678 36.623 455.361 39.905 457.532 44.478C459.644 40.818 461.032 38.59 464.708 36.306C468.275 34.106 472.575 33.429 476.646 34.426C480.879 35.455 484.524 38.136 486.767 41.871C488.969 45.523 489.601 49.909 488.52 54.033C487.041 59.532 483.636 62.264 478.976 64.963C482.45 66.998 484.503 68.288 486.686 71.78C488.915 75.326 489.605 79.627 488.597 83.692C487.171 89.423 483.737 92.191 478.984 95.055C483.88 97.719 487.528 101.121 488.682 106.836C489.55 110.978 488.726 115.294 486.393 118.824C483.363 123.344 479.554 124.999 474.464 125.985C465.752 125.899 461.839 123.237 457.751 115.627C455.57 119.559 453.654 122.166 449.524 124.288C445.644 126.261 441.128 126.567 437.018 125.134C432.289 123.45 429.509 120.265 427.426 115.855C425.612 119.261 423.625 121.79 420.287 123.779C416.663 125.947 412.322 126.577 408.231 125.526C402.684 124.097 399.843 120.708 397.147 116.03C395.252 119.304 393.759 121.52 390.491 123.611C386.951 125.862 382.653 126.589 378.569 125.63C374.259 124.628 370.539 121.922 368.259 118.13C366.034 114.469 365.39 110.061 366.477 105.917C367.935 100.425 371.383 97.707 376.051 95.062C372.496 92.928 370.561 91.821 368.313 88.212C366.099 84.67 365.41 80.383 366.405 76.326C367.826 70.573 371.236 67.82 376.01 64.961C375.216 64.544 374.439 64.095 373.682 63.615C369.986 61.229 367.304 57.592 366.381 53.265C365.471 49.11 366.259 44.764 368.569 41.192C371.38 36.902 375.115 35.145 379.928 34.093Z" fill="#060202"/>
<path d="M461.169 47.386C463.613 40.437 469.323 35.773 476.982 38.8C480.199 40.076 482.768 42.594 484.107 45.785C487.132 53.093 482.623 59.603 475.573 61.684C477.218 64.816 477.284 65.122 475.618 68.244C479.52 69.698 482.241 71.315 484.023 75.442C485.335 78.483 485.29 81.938 483.898 84.944C482.148 88.716 479.346 90.499 475.571 91.718C477.19 94.804 477.331 95.176 475.611 98.308C482.294 100.745 487.036 105.953 484.377 113.561C483.194 116.867 480.704 119.541 477.491 120.957C469.648 124.398 462.77 119.568 461.028 111.755C458.5 113.371 458.052 113.492 455.297 112.395L454.677 112.153C454.553 112.1 454.429 112.048 454.305 111.996C454.058 112.993 453.802 113.954 453.372 114.892C451.937 118.022 449.242 120.397 445.957 121.427C442.828 122.412 439.433 122.074 436.56 120.491C432.936 118.462 431.494 115.709 430.531 111.907C431.056 109.929 430.918 109.188 430.763 107.18C432.323 101.939 435.141 99.911 440.015 98.222C438.574 95.391 438.733 94.711 440.04 91.823C434.576 90.161 431.956 87.497 430.547 81.874C431.1 79.924 430.928 79.119 430.744 77.127C432.368 71.894 435.101 69.892 439.985 68.171C438.625 65.266 438.712 64.728 440.055 61.786C434.649 60.276 432.43 57.6 430.631 52.602C431.047 50.105 431.026 49.779 430.638 47.325C432.019 43.459 433.578 40.877 437.579 39.057C440.63 37.686 444.117 37.661 447.187 38.988C450.917 40.589 453.241 43.804 454.223 47.659C457.164 45.537 457.913 45.82 461.169 47.386Z" fill="#060202"/>
<path d="M454.321 81.93C457.626 83.299 457.871 83.711 461.044 81.727C462.466 87.264 464.86 90.04 470.374 91.744C472.821 91.189 473.124 91.174 475.571 91.718C477.19 94.804 477.331 95.176 475.611 98.308C482.294 100.745 487.036 105.953 484.377 113.561C483.194 116.867 480.704 119.541 477.491 120.957C469.648 124.398 462.77 119.568 461.028 111.755C458.5 113.371 458.052 113.492 455.297 112.395L454.677 112.153C454.553 112.1 454.429 112.048 454.305 111.996C454.058 112.993 453.802 113.954 453.372 114.892C451.937 118.022 449.242 120.397 445.957 121.427C442.828 122.412 439.433 122.074 436.56 120.491C432.936 118.462 431.494 115.709 430.531 111.907C431.056 109.929 430.918 109.188 430.763 107.18C432.323 101.939 435.141 99.911 440.015 98.222C438.574 95.391 438.733 94.711 440.04 91.823C442.334 91.208 442.941 91.177 445.317 91.607C450.803 90.025 452.78 87.026 454.321 81.93Z" fill="#060202"/>
<path d="M475.611 98.308C482.294 100.745 487.036 105.953 484.377 113.561C483.194 116.867 480.704 119.541 477.491 120.957C469.648 124.398 462.77 119.568 461.028 111.755C461.678 109.78 461.498 109.213 461.309 107.137C462.743 102.026 465.675 100.076 470.274 98.307C472.467 98.908 473.396 99.095 475.611 98.308Z" fill="white"/>
<path d="M471.047 102.201C475.307 101.155 479.623 103.703 480.765 107.939C481.906 112.175 479.456 116.547 475.248 117.784C472.439 118.61 469.403 117.851 467.315 115.799C465.226 113.748 464.412 110.727 465.186 107.904C465.961 105.081 468.204 102.898 471.047 102.201Z" fill="#1D4ED8"/>
<path d="M440.015 98.222C442.023 98.896 443.209 99.111 445.315 98.426C449.988 100.03 452.727 102.37 454.098 107.315C453.907 109.436 453.801 109.949 454.305 111.996C454.058 112.993 453.802 113.954 453.372 114.892C451.937 118.022 449.242 120.397 445.957 121.427C442.828 122.412 439.433 122.074 436.56 120.491C432.936 118.462 431.494 115.709 430.531 111.907C431.056 109.929 430.918 109.188 430.763 107.18C432.323 101.939 435.141 99.911 440.015 98.222Z" fill="white"/>
<path d="M440.499 102.197C444.755 101.151 449.069 103.69 450.22 107.919C451.37 112.148 448.938 116.523 444.739 117.778C441.929 118.618 438.884 117.868 436.785 115.819C434.686 113.771 433.863 110.745 434.635 107.915C435.406 105.086 437.651 102.897 440.499 102.197Z" fill="#1D4ED8"/>
<path d="M470.374 91.744C472.821 91.189 473.124 91.174 475.571 91.718C477.19 94.804 477.331 95.176 475.611 98.308C473.396 99.095 472.467 98.908 470.274 98.307C468.7 95.157 468.699 94.85 470.374 91.744Z" fill="#1D4ED8"/>
<path d="M440.04 91.823C442.334 91.208 442.941 91.177 445.317 91.607C447.048 94.792 447.032 95.302 445.315 98.426C443.209 99.111 442.023 98.896 440.015 98.222C438.574 95.391 438.733 94.711 440.04 91.823Z" fill="#1D4ED8"/>
<path d="M454.098 107.315C457.138 104.804 458.046 104.826 461.309 107.137C461.498 109.213 461.678 109.78 461.028 111.755C458.5 113.371 458.052 113.492 455.297 112.395L454.677 112.153C454.553 112.1 454.429 112.048 454.305 111.996C453.801 109.949 453.907 109.436 454.098 107.315Z" fill="#1D4ED8"/>
<path d="M457.639 85.385C460.328 90.689 461.888 92.027 466.933 95.051C461.676 97.91 460.399 99.636 457.532 104.767C455.446 99.49 453.278 97.812 448.431 95.076C453.465 92.116 455.11 90.599 457.639 85.385Z" fill="#F5F4E0"/>
<path d="M461.169 47.386C463.613 40.437 469.323 35.773 476.982 38.8C480.199 40.076 482.768 42.594 484.107 45.785C487.132 53.093 482.623 59.603 475.573 61.684C473.347 61.002 472.558 61.128 470.358 61.714C465.148 60.088 462.636 57.406 461.147 52.286C461.638 50.024 461.566 49.682 461.169 47.386Z" fill="white"/>
<path d="M470.67 42.218C474.944 40.948 479.439 43.383 480.71 47.657C481.981 51.931 479.547 56.426 475.273 57.698C470.998 58.97 466.502 56.535 465.231 52.26C463.959 47.985 466.395 43.489 470.67 42.218Z" fill="#1D4ED8"/>
<path d="M430.638 47.325C432.019 43.459 433.578 40.877 437.579 39.057C440.63 37.686 444.117 37.661 447.187 38.988C450.917 40.589 453.241 43.804 454.223 47.659C453.908 49.803 453.812 50.231 454.178 52.348C452.689 57.258 450.464 60.062 445.319 61.55C442.947 61.074 442.361 61.139 440.055 61.786C434.649 60.276 432.43 57.6 430.631 52.602C431.047 50.105 431.026 49.779 430.638 47.325Z" fill="white"/>
<path d="M440.141 42.209C444.409 40.95 448.891 43.381 450.164 47.645C451.436 51.909 449.02 56.399 444.76 57.686C440.481 58.979 435.965 56.549 434.687 52.265C433.408 47.981 435.853 43.474 440.141 42.209Z" fill="#1D4ED8"/>
<path d="M475.618 68.244C479.52 69.698 482.241 71.315 484.023 75.442C485.335 78.483 485.29 81.938 483.898 84.944C482.148 88.716 479.346 90.499 475.571 91.718C473.124 91.174 472.821 91.189 470.374 91.744C464.86 90.04 462.466 87.264 461.044 81.727C461.671 79.682 461.53 79.118 461.32 76.963C463.079 71.754 465.513 70.121 470.296 68.252C472.538 68.872 473.357 69.02 475.618 68.244Z" fill="white"/>
<path d="M470.893 72.198C475.196 71.052 479.614 73.609 480.764 77.911C481.914 82.213 479.362 86.633 475.061 87.788C470.755 88.944 466.327 86.387 465.175 82.079C464.023 77.771 466.584 73.346 470.893 72.198Z" fill="#1D4ED8"/>
<path d="M445.337 68.349C449.972 70.075 452.729 72.229 454.071 77.275C453.891 79.365 453.765 79.933 454.321 81.93C452.78 87.026 450.803 90.025 445.317 91.607C442.941 91.177 442.334 91.208 440.04 91.823C434.576 90.161 431.956 87.497 430.547 81.874C431.1 79.924 430.928 79.119 430.744 77.127C432.368 71.894 435.101 69.892 439.985 68.171C442.165 68.842 443.108 69.112 445.337 68.349Z" fill="white"/>
<path d="M440.325 72.199C444.599 71.046 449.005 73.548 450.205 77.809C451.405 82.071 448.952 86.505 444.703 87.751C441.914 88.57 438.899 87.826 436.81 85.804C434.721 83.782 433.879 80.793 434.607 77.978C435.334 75.163 437.517 72.956 440.325 72.199Z" fill="#1D4ED8"/>
<path d="M470.358 61.714C472.558 61.128 473.347 61.002 475.573 61.684C477.218 64.816 477.284 65.122 475.618 68.244C473.357 69.02 472.538 68.872 470.296 68.252C468.685 65.134 468.706 64.816 470.358 61.714Z" fill="#1D4ED8"/>
<path d="M440.055 61.786C442.361 61.139 442.947 61.074 445.319 61.55C447.019 64.704 447.067 65.208 445.337 68.349C443.108 69.112 442.165 68.842 439.985 68.171C438.625 65.266 438.712 64.728 440.055 61.786Z" fill="#1D4ED8"/>
<path d="M454.223 47.659C457.164 45.537 457.913 45.82 461.169 47.386C461.566 49.682 461.638 50.024 461.147 52.286C458.109 54.456 457.254 54.239 454.178 52.348C453.812 50.231 453.908 49.803 454.223 47.659Z" fill="#1D4ED8"/>
<path d="M454.071 77.275C455.364 76.128 455.437 76.096 457.061 75.45C458.937 75.494 459.674 76.079 461.32 76.963C461.53 79.118 461.671 79.682 461.044 81.727C457.871 83.711 457.626 83.299 454.321 81.93C453.765 79.933 453.891 79.365 454.071 77.275Z" fill="#1D4ED8"/>
<path d="M457.648 55.337C460.322 60.622 461.859 62.015 466.951 64.966C461.877 67.829 460.649 69.239 457.798 74.201C457.352 73.787 457.555 74.026 457.215 73.491C454.355 68.99 453.013 67.58 448.446 65.014C453.457 62.088 455.14 60.498 457.648 55.337Z" fill="#F5F4E0"/>
<path d="M400.539 47.458C400.736 46.519 401.043 45.607 401.455 44.741C402.798 41.91 405.223 39.737 408.184 38.711C411.446 37.586 415.031 37.889 418.058 39.545C421.319 41.333 422.899 43.803 423.935 47.228C428.591 44.787 427.347 46.824 430.638 47.325C431.026 49.779 431.047 50.105 430.631 52.602C432.43 57.6 434.649 60.276 440.055 61.786C438.712 64.728 438.625 65.266 439.985 68.171C435.101 69.892 432.368 71.894 430.744 77.127C430.928 79.119 431.1 79.924 430.547 81.874C427.739 83.338 427.031 83.461 424.11 82.237C422.588 86.935 420.485 90.167 415.323 91.464C412.885 91.241 412.477 91.183 410.051 91.925C404.098 90.005 402.077 87.681 400.22 81.933C397.484 83.343 396.813 83.364 393.92 82.388C392.151 87.432 390.023 90.206 384.591 91.714C382.271 91.157 381.729 91.228 379.416 91.714C378.884 91.548 378.355 91.367 377.833 91.172C374.701 89.99 372.193 87.571 370.898 84.484C369.712 81.585 369.74 78.33 370.976 75.451C372.732 71.334 375.49 69.702 379.364 68.232C377.605 65.028 377.899 64.871 379.395 61.69C372.543 59.527 368.11 53.589 370.685 46.343C371.887 43.019 374.405 40.338 377.646 38.93C385.218 35.672 391.147 40.248 393.825 47.105C397.019 45.734 397.493 45.841 400.539 47.458Z" fill="#060202"/>
<path d="M400.539 47.458C400.736 46.519 401.043 45.607 401.455 44.741C402.798 41.91 405.223 39.737 408.184 38.711C411.446 37.586 415.031 37.889 418.058 39.545C421.319 41.333 422.899 43.803 423.935 47.228C428.591 44.787 427.347 46.824 430.638 47.325C431.026 49.779 431.047 50.105 430.631 52.602C432.43 57.6 434.649 60.276 440.055 61.786C438.712 64.728 438.625 65.266 439.985 68.171C435.101 69.892 432.368 71.894 430.744 77.127C430.928 79.119 431.1 79.924 430.547 81.874C427.739 83.338 427.031 83.461 424.11 82.237C422.588 86.935 420.485 90.167 415.323 91.464C412.885 91.241 412.477 91.183 410.051 91.925C404.098 90.005 402.077 87.681 400.22 81.933C400.861 79.588 400.97 79.243 400.653 76.809C402.29 71.581 405.243 69.85 409.97 68.051C408.907 65.104 408.985 64.789 410.083 61.89C404.519 60.17 402.148 57.858 400.428 52.408C400.926 50.103 400.907 49.793 400.539 47.458Z" fill="#060202"/>
<path d="M400.539 47.458C400.736 46.519 401.043 45.607 401.455 44.741C402.798 41.91 405.223 39.737 408.184 38.711C411.446 37.586 415.031 37.889 418.058 39.545C421.319 41.333 422.899 43.803 423.935 47.228C423.149 49.573 423.056 50.376 423.971 52.723C422.452 56.911 420.101 60.497 415.327 61.375C413.044 61.042 412.234 61.222 410.083 61.89C404.519 60.17 402.148 57.858 400.428 52.408C400.926 50.103 400.907 49.793 400.539 47.458Z" fill="white"/>
<path d="M409.917 42.205C412.719 41.368 415.755 42.109 417.856 44.143C419.958 46.176 420.798 49.186 420.054 52.014C419.31 54.842 417.097 57.048 414.267 57.784C409.998 58.894 405.627 56.38 404.441 52.131C403.254 47.883 405.691 43.467 409.917 42.205Z" fill="#1D4ED8"/>
<path d="M409.97 68.051C412.387 68.878 412.84 69.009 415.33 68.536C419.963 69.969 422.01 72.219 423.89 76.583C423.197 79.112 423.115 79.797 424.11 82.237C422.588 86.935 420.485 90.167 415.323 91.464C412.885 91.241 412.477 91.183 410.051 91.925C404.098 90.005 402.077 87.681 400.22 81.933C400.861 79.588 400.97 79.243 400.653 76.809C402.29 71.581 405.243 69.85 409.97 68.051Z" fill="white"/>
<path d="M410.114 72.193C414.42 71.024 418.858 73.562 420.036 77.865C421.214 82.168 418.687 86.612 414.387 87.8C410.072 88.991 405.611 86.454 404.429 82.137C403.247 77.821 405.795 73.364 410.114 72.193Z" fill="#1D4ED8"/>
<path d="M423.935 47.228C428.591 44.787 427.347 46.824 430.638 47.325C431.026 49.779 431.047 50.105 430.631 52.602C427.431 54.043 427.155 54.288 423.971 52.723C423.056 50.376 423.149 49.573 423.935 47.228Z" fill="#1D4ED8"/>
<path d="M410.083 61.89C412.234 61.222 413.044 61.042 415.327 61.375C417.243 64.747 417.384 65.138 415.33 68.536C412.84 69.009 412.387 68.878 409.97 68.051C408.907 65.104 408.985 64.789 410.083 61.89Z" fill="#1D4ED8"/>
<path d="M423.89 76.583C427.135 75.134 427.784 74.774 430.744 77.127C430.928 79.119 431.1 79.924 430.547 81.874C427.739 83.338 427.031 83.461 424.11 82.237C423.115 79.797 423.197 79.112 423.89 76.583Z" fill="#1D4ED8"/>
<path d="M427.318 55.92C430.109 60.818 431.58 62.159 436.322 64.972C431.541 67.692 429.898 69.369 427.373 74.113C424.63 69.16 423.087 67.831 418.299 64.998C423.073 62.275 424.613 60.596 427.318 55.92Z" fill="#F5F4E0"/>
<path d="M379.395 61.69C372.543 59.527 368.11 53.589 370.685 46.343C371.887 43.019 374.405 40.338 377.646 38.93C385.218 35.672 391.147 40.248 393.825 47.105C393.014 49.501 392.817 50.314 393.845 52.674C391.916 57.625 390.001 60.097 384.6 61.675C382.219 61.061 381.811 61.145 379.395 61.69Z" fill="white"/>
<path d="M379.707 42.221C383.997 40.925 388.522 43.371 389.788 47.669C391.054 51.968 388.578 56.476 384.271 57.712C380.005 58.937 375.55 56.49 374.296 52.233C373.042 47.976 375.459 43.504 379.707 42.221Z" fill="#1D4ED8"/>
<path d="M384.668 68.25C389.183 69.915 391.968 71.786 393.583 76.672C392.912 79.239 393.067 79.826 393.92 82.388C392.151 87.432 390.023 90.206 384.591 91.714C382.271 91.157 381.729 91.228 379.416 91.714C378.884 91.548 378.355 91.367 377.833 91.172C374.701 89.99 372.193 87.571 370.898 84.484C369.712 81.585 369.74 78.33 370.976 75.451C372.732 71.334 375.49 69.702 379.364 68.232C381.614 68.864 382.409 69.042 384.668 68.25Z" fill="white"/>
<path d="M379.999 72.189C384.299 71.065 388.699 73.629 389.842 77.924C390.984 82.219 388.44 86.631 384.15 87.792C379.833 88.962 375.388 86.398 374.238 82.075C373.088 77.753 375.671 73.319 379.999 72.189Z" fill="#1D4ED8"/>
<path d="M393.825 47.105C397.019 45.734 397.493 45.841 400.539 47.458C400.907 49.793 400.926 50.103 400.428 52.408C397.295 54.188 397.056 54.33 393.845 52.674C392.817 50.314 393.014 49.501 393.825 47.105Z" fill="#1D4ED8"/>
<path d="M393.583 76.672C397.362 74.61 396.933 75.493 400.653 76.809C400.97 79.243 400.861 79.588 400.22 81.933C397.484 83.343 396.813 83.364 393.92 82.388C393.067 79.826 392.912 79.239 393.583 76.672Z" fill="#1D4ED8"/>
<path d="M379.395 61.69C381.811 61.145 382.219 61.061 384.6 61.675C386.286 64.793 386.364 65.136 384.668 68.25C382.409 69.042 381.614 68.864 379.364 68.232C377.605 65.028 377.899 64.871 379.395 61.69Z" fill="#1D4ED8"/>
<path d="M397.131 55.871C399.626 60.678 401.627 62.277 406.16 64.985C401.46 67.649 399.716 69.354 397.208 74.048C393.997 68.946 393.316 68.057 388.081 64.977C392.97 62.267 394.426 60.629 397.131 55.871Z" fill="#F5F4E0"/>
<path d="M393.92 82.388C396.813 83.364 397.484 83.343 400.22 81.933C402.077 87.681 404.098 90.005 410.051 91.925C409.043 94.843 408.721 95.304 410.119 98.146C405.278 99.77 402.309 101.587 400.655 106.842C400.903 109.289 400.906 109.604 400.206 111.955C397.982 113.144 397.276 113.486 394.842 112.716C394.525 112.613 394.211 112.504 393.899 112.388C391.852 119.772 385.186 124.231 377.665 121.037C374.425 119.652 371.895 116.998 370.667 113.695C367.876 106.081 372.674 100.758 379.376 98.309C377.624 95.067 377.872 94.956 379.416 91.714C381.729 91.228 382.271 91.157 384.591 91.714C390.023 90.206 392.151 87.432 393.92 82.388Z" fill="#060202"/>
<path d="M384.708 98.328C389.177 99.952 392.004 101.868 393.572 106.704C392.966 109.155 393.064 109.943 393.899 112.388C391.852 119.772 385.186 124.231 377.665 121.037C374.425 119.652 371.895 116.998 370.667 113.695C367.876 106.081 372.674 100.758 379.376 98.309C381.505 98.921 382.535 99.094 384.708 98.328Z" fill="white"/>
<path d="M380.191 102.188C384.461 101.185 388.752 103.775 389.853 108.022C390.954 112.268 388.463 116.617 384.242 117.815C381.425 118.615 378.395 117.826 376.325 115.755C374.255 113.683 373.47 110.652 374.272 107.836C375.075 105.019 377.34 102.858 380.191 102.188Z" fill="#1D4ED8"/>
<path d="M393.572 106.704C398.662 104.079 397.009 106.225 400.655 106.842C400.903 109.289 400.906 109.604 400.206 111.955C397.982 113.144 397.276 113.486 394.842 112.716C394.525 112.613 394.211 112.504 393.899 112.388C393.064 109.943 392.966 109.155 393.572 106.704Z" fill="#1D4ED8"/>
<path d="M379.416 91.714C381.729 91.228 382.271 91.157 384.591 91.714C386.302 94.841 386.321 95.16 384.708 98.328C382.535 99.094 381.505 98.921 379.376 98.309C377.624 95.067 377.872 94.956 379.416 91.714Z" fill="#1D4ED8"/>
<path d="M397.117 85.927C399.562 90.668 401.74 92.407 406.208 95.048C401.431 97.572 399.729 99.514 397.191 104.103C394.33 99.188 392.906 97.801 388.055 95.046C393.001 92.208 394.363 90.802 397.117 85.927Z" fill="#F5F4E0"/>
<path d="M430.547 81.874C431.956 87.497 434.576 90.161 440.04 91.823C438.733 94.711 438.574 95.391 440.015 98.222C435.141 99.911 432.323 101.939 430.763 107.18C430.918 109.188 431.056 109.929 430.531 111.907C427.72 113.393 427.025 113.477 424.08 112.294C423.905 112.907 423.701 113.511 423.47 114.106C422.214 117.403 419.951 119.797 416.664 121.14C413.568 122.388 410.089 122.275 407.081 120.828C402.932 118.838 401.518 115.944 400.206 111.955C400.906 109.604 400.903 109.289 400.655 106.842C402.309 101.587 405.278 99.77 410.119 98.146C408.721 95.304 409.043 94.843 410.051 91.925C412.477 91.183 412.885 91.241 415.323 91.464C420.485 90.167 422.588 86.935 424.11 82.237C427.031 83.461 427.739 83.338 430.547 81.874Z" fill="#060202"/>
<path d="M410.119 98.146C412.343 98.91 412.998 99.061 415.327 98.598C419.703 99.906 422.356 102.433 423.851 106.742C423.201 109.325 423.155 109.782 424.08 112.294C423.905 112.907 423.701 113.511 423.47 114.106C422.214 117.403 419.951 119.797 416.664 121.14C413.568 122.388 410.089 122.275 407.081 120.828C402.932 118.838 401.518 115.944 400.206 111.955C400.906 109.604 400.903 109.289 400.655 106.842C402.309 101.587 405.278 99.77 410.119 98.146Z" fill="white"/>
<path d="M410.277 102.191C414.601 101.114 418.982 103.737 420.075 108.058C421.168 112.378 418.561 116.769 414.245 117.878C409.906 118.992 405.487 116.369 404.388 112.025C403.29 107.682 405.93 103.273 410.277 102.191Z" fill="#1D4ED8"/>
<path d="M410.051 91.925C412.477 91.183 412.885 91.241 415.323 91.464C417.299 94.843 417.349 95.219 415.327 98.598C412.998 99.061 412.343 98.91 410.119 98.146C408.721 95.304 409.043 94.843 410.051 91.925Z" fill="#1D4ED8"/>
<path d="M423.851 106.742C427.009 105.071 427.839 104.842 430.763 107.18C430.918 109.188 431.056 109.929 430.531 111.907C427.72 113.393 427.025 113.477 424.08 112.294C423.155 109.782 423.201 109.325 423.851 106.742Z" fill="#1D4ED8"/>
<path d="M427.314 85.916C430.066 90.856 431.594 92.204 436.352 95.072C431.504 97.664 429.907 99.457 427.36 104.151C424.722 99.287 422.994 97.769 418.297 95.074C423.146 92.196 424.588 90.721 427.314 85.916Z" fill="#F5F4E0"/>
<path d="M225.524 67.708C231.902 65.756 236.511 67.765 237.734 74.754C243.462 76.35 249.326 75.832 254.934 74.101L255.162 74.76C256.464 78.573 255.588 79.087 258.948 81.996C259.104 86.557 258.951 87.411 261.825 90.831C257.842 95.447 256.422 98.139 254.508 103.987C257.839 108.89 259.451 112.52 254.596 117.402C250.878 119.141 250.265 119.178 246.205 118.462L245.692 118.111L244.793 118.449C242.18 127.955 237.216 135.73 228.822 141.138C220.332 146.501 210.06 148.271 200.265 146.06C190.942 143.932 182.844 138.191 177.751 130.097C172.465 121.737 170.76 111.604 173.017 101.974C175.188 92.549 181.041 84.385 189.27 79.302C199.57 72.976 209.432 72.962 220.734 75.604L221.157 75.261C222.102 71.22 222.355 70.404 225.524 67.708Z" fill="white"/>
<path d="M244.793 118.449C242.18 127.955 237.216 135.73 228.822 141.138C220.332 146.501 210.06 148.271 200.265 146.06C190.942 143.932 182.844 138.191 177.751 130.097C172.465 121.737 170.76 111.604 173.017 101.974C175.188 92.549 181.041 84.385 189.27 79.302C199.57 72.976 209.432 72.962 220.734 75.604L221.684 76.79C221.391 77.303 216.655 83.142 216.457 83.265C208.629 81.396 200.693 82.155 193.777 86.465C187.32 90.536 182.779 97.038 181.181 104.501C179.589 111.865 181.014 119.559 185.136 125.865C189.159 132.12 195.543 136.481 202.834 137.953C217.963 141.072 231.731 132.308 236.176 117.676C239.784 119.208 240.949 118.982 244.793 118.449Z" fill="#060202"/>
<path d="M254.934 74.101L255.162 74.76C256.464 78.573 255.588 79.087 258.948 81.996C259.104 86.557 258.951 87.411 261.825 90.831C257.842 95.447 256.422 98.139 254.508 103.987C257.839 108.89 259.451 112.52 254.596 117.402C250.878 119.141 250.265 119.178 246.205 118.462L245.692 118.111L244.793 118.449C240.949 118.982 239.784 119.208 236.176 117.676C231.24 112.466 232.074 108.898 236.505 103.918C234.448 98.139 233.648 96.322 229.848 91.556C232.707 88.399 232.735 87.205 233.374 83.09L233.818 82.298L233.778 81.905C236.024 79.546 237.18 77.961 237.734 74.754C243.462 76.35 249.326 75.832 254.934 74.101Z" fill="#F5F4E0"/>
<path d="M245.215 103.813L245.531 103.779L246.008 103.056C245.584 102.963 255.169 103.949 254.508 103.987C257.839 108.89 259.451 112.52 254.596 117.402C250.878 119.141 250.265 119.178 246.205 118.462L245.692 118.111L244.793 118.449C240.949 118.982 239.784 119.208 236.176 117.676C231.24 112.466 232.074 108.898 236.505 103.918C240.408 103.069 241.247 102.778 245.215 103.813Z" fill="#1D4ED8"/>
<path d="M254.934 74.101L255.162 74.76C256.464 78.573 255.588 79.087 258.948 81.996C250.002 84.103 242.928 85.437 233.818 82.298L233.778 81.905C236.024 79.546 237.18 77.961 237.734 74.754C243.462 76.35 249.326 75.832 254.934 74.101Z" fill="#060202"/>
<path d="M258.948 81.996C259.104 86.557 258.951 87.411 261.825 90.831C257.842 95.447 256.422 98.139 254.508 103.987C255.169 103.949 245.584 102.963 246.008 103.056C248.712 93.463 251.619 88.592 258.948 81.996Z" fill="#060202"/>
<path d="M229.848 91.556C232.707 88.399 232.735 87.205 233.374 83.09C240.475 90.234 242.368 94.182 245.215 103.813C241.247 102.778 240.408 103.069 236.505 103.918C234.448 98.139 233.648 96.322 229.848 91.556Z" fill="#060202"/>
<path d="M225.524 67.708C231.902 65.756 236.511 67.765 237.734 74.754C237.18 77.961 236.024 79.546 233.778 81.905L233.818 82.298L233.374 83.09C232.735 87.205 232.707 88.399 229.848 91.556C227.454 92.614 223.828 93.828 221.388 92.307C217.794 90.067 217.717 86.458 216.457 83.265C216.655 83.142 221.391 77.303 221.684 76.79L220.734 75.604L221.157 75.261C222.102 71.22 222.355 70.404 225.524 67.708Z" fill="#1D4ED8"/>
<path d="M207.833 91.721C218.15 91.198 226.939 99.134 227.469 109.45C227.998 119.767 220.067 128.561 209.751 129.096C199.426 129.632 190.623 121.693 190.093 111.368C189.563 101.043 197.507 92.245 207.833 91.721Z" fill="#1D4ED8"/>
<path d="M265.342 67.466C268.903 69.01 269.764 69.983 271.558 73.495L271.498 75.345C281.912 72.714 291.652 73.357 301.047 78.953C309.452 83.939 315.523 92.068 317.918 101.542C320.288 111.04 318.781 121.09 313.73 129.474C308.545 137.777 300.303 143.707 290.782 145.984C281.077 148.291 270.851 146.605 262.4 141.304C253.886 135.922 248.835 128.05 246.205 118.462C250.265 119.178 250.878 119.141 254.596 117.402C259.451 112.52 257.839 108.89 254.508 103.987C256.422 98.139 257.842 95.447 261.825 90.831C258.951 87.411 259.104 86.557 258.948 81.996C255.588 79.087 256.464 78.573 255.162 74.76L254.934 74.101C259.098 70.621 255.927 67.311 265.342 67.466Z" fill="white"/>
<path d="M271.498 75.345C281.912 72.714 291.652 73.357 301.047 78.953C309.452 83.939 315.523 92.068 317.918 101.542C320.288 111.04 318.781 121.09 313.73 129.474C308.545 137.777 300.303 143.707 290.782 145.984C281.077 148.291 270.851 146.605 262.4 141.304C253.886 135.922 248.835 128.05 246.205 118.462C250.265 119.178 250.878 119.141 254.596 117.402C256.933 123.567 259.38 128.321 264.687 132.542C270.724 137.244 278.396 139.325 285.981 138.318C293.41 137.415 300.153 133.533 304.665 127.562C309.243 121.558 311.234 113.975 310.196 106.497C309.129 99.005 305.115 92.249 299.046 87.73C291.571 82.227 283.848 81.592 274.984 82.993C273.415 78.95 271.386 79.098 271.498 75.345Z" fill="#060202"/>
<path d="M265.342 67.466C268.903 69.01 269.764 69.983 271.558 73.495L271.498 75.345C271.386 79.098 273.415 78.95 274.984 82.993C274.906 91.091 269.02 95.063 261.825 90.831C258.951 87.411 259.104 86.557 258.948 81.996C255.588 79.087 256.464 78.573 255.162 74.76L254.934 74.101C259.098 70.621 255.927 67.311 265.342 67.466Z" fill="#1D4ED8"/>
<path d="M281.675 91.706C291.912 91.406 300.489 99.392 300.921 109.625C301.352 119.858 293.477 128.537 283.251 129.1C276.518 129.47 270.105 126.19 266.466 120.512C262.827 114.835 262.524 107.639 265.672 101.675C268.821 95.712 274.934 91.903 281.675 91.706Z" fill="#1D4ED8"/>
<path d="M221.157 75.261C214.228 68.84 209.732 60.668 208.797 51.205C207.837 41.368 210.885 31.559 217.25 23.998C223.542 16.597 232.496 11.973 242.174 11.129C252.102 10.216 261.974 13.381 269.52 19.897C276.93 26.275 281.483 35.351 282.164 45.104C282.957 56.554 278.893 65.116 271.558 73.495C269.764 69.983 268.903 69.01 265.342 67.466C255.927 67.311 259.098 70.621 254.934 74.101C249.326 75.832 243.462 76.35 237.734 74.754C236.511 67.765 231.902 65.756 225.524 67.708C222.355 70.404 222.102 71.22 221.157 75.261Z" fill="white"/>
<path d="M221.157 75.261C214.228 68.84 209.732 60.668 208.797 51.205C207.837 41.368 210.885 31.559 217.25 23.998C223.542 16.597 232.496 11.973 242.174 11.129C252.102 10.216 261.974 13.381 269.52 19.897C276.93 26.275 281.483 35.351 282.164 45.104C282.957 56.554 278.893 65.116 271.558 73.495C269.764 69.983 268.903 69.01 265.342 67.466C269.795 63.427 272.713 57.177 273.503 51.255C274.439 43.681 272.32 36.046 267.615 30.037C262.953 24.081 256.185 20.499 248.699 19.648C241.042 18.769 233.358 21.046 227.417 25.953C221.529 30.714 217.837 37.669 217.191 45.213C216.44 54.363 219.738 60.988 225.524 67.708C222.355 70.404 222.102 71.22 221.157 75.261Z" fill="#060202"/>
<path d="M242.052 29.175C248.694 27.954 255.479 30.406 259.805 35.592C264.131 40.778 265.327 47.893 262.935 54.208C260.542 60.524 254.932 65.06 248.256 66.078C238.149 67.619 228.677 60.763 226.982 50.682C225.287 40.6 231.997 31.024 242.052 29.175Z" fill="#1D4ED8"/>
<path d="M521.614 72.49C523.972 74.038 529.598 79.057 532.018 81.122L521.936 89.641C520.325 88.928 522.274 88.66 520.64 86.783C518.349 86.038 515.477 86.302 512.999 86.36L512.986 75.973C514.623 75.929 516.284 76.158 517.916 76.142C521.437 76.106 521.214 75.346 521.614 72.49Z" fill="#CBCBCB"/>
<path d="M157.612 72.488C159.956 74.001 165.541 79.016 167.911 81.061C164.961 83.817 161.093 86.964 157.975 89.628L157.583 89.267C157.308 88.304 156.999 87.502 156.649 86.571C155.316 85.834 150.813 86.275 149.002 86.354L148.988 75.972C150.658 75.921 152.283 76.145 153.942 76.144C157.474 76.142 157.256 75.338 157.612 72.488Z" fill="#CBCBCB"/>
<path d="M338.561 72.457C341.768 74.615 345.991 78.519 349.006 81.143C346.06 83.399 342.172 86.879 339.251 89.337L338.49 89.225C338.448 88.12 338.468 87.844 338.21 86.742C335.957 85.965 332.499 86.192 329.992 86.205L329.987 75.965C332.699 75.9 334.954 76.553 337.433 75.744C338.769 74.408 338.347 74.859 338.561 72.457Z" fill="#CBCBCB"/>
<path d="M714.632 73.424C716.355 74.483 723.184 80.554 725.114 82.217C722.187 84.311 718.13 87.943 715.271 90.366L714.512 90.204C714.439 89.027 714.456 88.842 714.132 87.666C712.238 87.007 708.199 87.203 705.996 87.205L705.979 76.99C708.684 76.911 710.957 77.551 713.423 76.733C714.784 75.401 714.353 75.818 714.632 73.424Z" fill="#CBCBCB"/>
<path d="M576.519 17.452C579.649 17.226 582.112 16.636 584.675 18.295C586.223 20.331 585.581 22.784 585.32 25.422L576.026 25.419C575.977 22.845 575.731 19.845 576.519 17.452Z" fill="#060202"/>
<path d="M653.684 124.87C656.676 124.68 658.911 124.872 661.909 125.077C662.08 127.8 661.976 130.477 661.916 133.203C659.393 133.873 656.292 133.728 653.642 133.731L653.684 124.87Z" fill="#060202"/>
<path d="M614.27 18.307L623.822 18.329L623.771 25.438L614.225 25.414L614.27 18.307Z" fill="#060202"/>
<path d="M614.286 143.922L623.78 143.885L623.803 150.971L614.207 150.994L614.286 143.922Z" fill="#060202"/>
<path d="M633.437 18.295L642.944 18.34L642.925 25.419L633.387 25.403L633.437 18.295Z" fill="#060202"/>
<path d="M633.447 143.931L642.94 143.877L642.949 150.961L633.36 150.987L633.447 143.931Z" fill="#060202"/>
<path d="M577.166 0.0110168L585.536 0.00900269C585.545 2.461 585.825 6.05602 584.784 8.15002C582.879 8.40102 579.179 8.38102 577.118 8.42502L577.166 0.0110168Z" fill="#060202"/>
<path d="M652.5 0.0169983L662.048 0.0100098L661.977 7.09802L652.484 7.08301L652.5 0.0169983Z" fill="#060202"/>
<path d="M633.415 0.0120239L642.958 0.0100098L642.923 7.065L633.394 7.08502L633.415 0.0120239Z" fill="#060202"/>
<path d="M595.091 18.333L604.608 18.339L604.577 25.425L595.073 25.413L595.091 18.333Z" fill="#060202"/>
<path d="M595.097 143.937L604.602 143.892L604.613 150.967L595.059 150.997L595.097 143.937Z" fill="#060202"/>
<path d="M595.082 0.0150146L604.632 0L604.557 7.07202L595.076 7.099L595.082 0.0150146Z" fill="#060202"/>
<path d="M576.028 143.91L585.505 143.907L585.523 150.956L575.968 150.992L576.028 143.91Z" fill="#060202"/>
<path d="M652.501 18.303L660.881 18.343L660.882 26.518L659.377 26.572C656.515 26.66 655.117 27.095 653.129 25.231C652.106 23.078 652.441 20.768 652.501 18.303Z" fill="#060202"/>
<path d="M671.619 0.0250244L679.993 0.00201416L679.955 8.43701C676.225 8.50501 674.592 9.08702 672.136 6.76501C671.265 4.56701 671.555 2.43702 671.619 0.0250244Z" fill="#060202"/>
<path d="M653.978 142.65L660.906 142.575C660.908 144.807 661.312 149.39 660.357 150.979L652.46 150.99C652.338 147.151 651.844 145.578 653.978 142.65Z" fill="#060202"/>
<path d="M558.052 142.559C566.389 142.452 566.573 142.627 566.425 150.958L558.016 151.001L558.052 142.559Z" fill="#060202"/>
<path d="M558.018 18.303L566.446 18.292C566.471 20.819 566.293 23.318 566.149 25.841C563.697 26.855 560.746 26.588 558.025 26.58L558.018 18.303Z" fill="#060202"/>
<path d="M614.3 0.0110168L623.846 0.00500488L623.753 7.06802L614.21 7.08102C614.195 4.77202 614.269 2.33302 614.3 0.0110168Z" fill="#060202"/>
<path d="M672.863 124.474L679.986 124.422C680.004 126.614 680.386 131.155 679.444 132.721L671.569 132.753C671.519 129.689 671.222 127.087 672.863 124.474Z" fill="#060202"/>
<path d="M653.678 89.069L660.891 89.057L660.873 97.976L653.617 98.001L653.678 89.069Z" fill="#060202"/>
<path d="M653.691 35.519L660.886 35.518L660.862 44.472L653.637 44.466L653.691 35.519Z" fill="#060202"/>
<path d="M653.675 107.021L660.875 106.999L660.889 115.913L653.62 115.942L653.675 107.021Z" fill="#060202"/>
<path d="M653.684 53.45L660.884 53.454L660.853 62.365L653.631 62.341L653.684 53.45Z" fill="#060202"/>
<path d="M558.018 106.975L565.124 107.01L565.096 115.929L558.024 115.959L558.018 106.975Z" fill="#060202"/>
<path d="M558.038 89.052L565.119 89.06L565.09 97.973L558.018 98.05L558.038 89.052Z" fill="#060202"/>
<path d="M558.031 35.493L565.104 35.529L565.072 44.473L558.02 44.492L558.031 35.493Z" fill="#060202"/>
<path d="M672.931 53.019L679.993 52.949L679.987 61.939L672.912 61.945L672.931 53.019Z" fill="#060202"/>
<path d="M672.964 35.066L679.996 35.052L679.981 44.046L672.906 43.994L672.964 35.066Z" fill="#060202"/>
<path d="M672.955 106.524L679.984 106.492L679.993 115.493L672.935 115.464L672.955 106.524Z" fill="#060202"/>
<path d="M672.943 70.932L679.992 70.778L679.997 79.786L672.928 79.817L672.943 70.932Z" fill="#060202"/>
<path d="M558.019 53.429L565.11 53.462L565.065 62.344L558.029 62.409L558.019 53.429Z" fill="#060202"/>
<path d="M653.67 71.336H660.89L660.861 80.038L653.626 80.08L653.67 71.336Z" fill="#060202"/>
<path d="M672.992 88.622L679.99 88.575L679.988 97.569L672.933 97.546L672.992 88.622Z" fill="#060202"/>
<path d="M672.941 17.327L679.997 17.308L679.984 26.271L672.93 26.166L672.941 17.327Z" fill="#060202"/>
<path d="M558.079 124.688L565.104 124.849L565.097 133.657L558.019 133.733C557.991 130.75 558.055 127.679 558.079 124.688Z" fill="#060202"/>
<path d="M558.077 71.171L565.116 71.275L565.068 80.062L558.022 80.204C558.004 77.212 558.056 74.168 558.077 71.171Z" fill="#060202"/>
<path d="M92.3468 214.476L95.587 214.093C95.9516 216.654 97.1456 217.935 99.1691 217.935C100.172 217.935 100.96 217.675 101.534 217.155C102.109 216.627 102.396 215.975 102.396 215.2C102.396 214.744 102.295 214.357 102.095 214.038C101.894 213.719 101.589 213.459 101.179 213.259C100.769 213.049 99.7752 212.703 98.1984 212.22C96.7856 211.791 95.7511 211.326 95.0948 210.825C94.4386 210.324 93.9145 209.668 93.5226 208.856C93.1398 208.036 92.9484 207.157 92.9484 206.218C92.9484 205.124 93.1945 204.14 93.6866 203.265C94.1879 202.39 94.8761 201.729 95.7511 201.282C96.6261 200.836 97.7062 200.612 98.9913 200.612C100.924 200.612 102.432 201.136 103.517 202.185C104.601 203.233 105.176 204.732 105.239 206.683L101.917 206.86C101.771 205.785 101.457 205.033 100.974 204.604C100.491 204.176 99.8025 203.962 98.9093 203.962C98.0161 203.962 97.3279 204.149 96.8448 204.522C96.3618 204.896 96.1202 205.361 96.1202 205.917C96.1202 206.464 96.339 206.924 96.7765 207.298C97.214 207.671 98.2212 208.082 99.798 208.528C101.466 209.011 102.669 209.522 103.407 210.06C104.155 210.588 104.724 211.276 105.116 212.124C105.508 212.963 105.704 213.983 105.704 215.186C105.704 216.927 105.166 218.39 104.091 219.575C103.025 220.76 101.352 221.352 99.0734 221.352C95.0447 221.352 92.8025 219.06 92.3468 214.476Z" fill="#1D4ED8"/>
<path d="M73.9991 220.997V200.954H78.962L81.9425 214.626L84.8956 200.954H89.8722V220.997H86.796V205.22L83.5284 220.997H80.3292L77.089 205.22V220.997H73.9991Z" fill="#1D4ED8"/>
<path d="M55.5011 211.099C55.5011 208.711 55.852 206.746 56.5538 205.206C57.2648 203.657 58.1899 202.504 59.3292 201.747C60.4685 200.99 61.8494 200.612 63.4718 200.612C65.8234 200.612 67.7374 201.51 69.214 203.306C70.6997 205.101 71.4425 207.658 71.4425 210.976C71.4425 214.33 70.6587 216.95 69.0909 218.837C67.7146 220.505 65.8462 221.339 63.4855 221.339C61.1066 221.339 59.229 220.514 57.8527 218.864C56.285 216.977 55.5011 214.389 55.5011 211.099ZM58.9191 210.962C58.9191 213.268 59.3566 215 60.2316 216.157C61.1066 217.306 62.1912 217.88 63.4855 217.88C64.7889 217.88 65.8689 217.31 66.7257 216.171C67.5825 215.022 68.0109 213.263 68.0109 210.893C68.0109 208.569 67.5916 206.851 66.7531 205.739C65.9236 204.627 64.8344 204.071 63.4855 204.071C62.1365 204.071 61.0382 204.632 60.1906 205.753C59.3429 206.874 58.9191 208.61 58.9191 210.962Z" fill="#1D4ED8"/>
<path d="M46.2452 220.997V204.345H41.3644V200.954H54.421V204.345H49.5538V220.997H46.2452Z" fill="#1D4ED8"/>
<path d="M42.4855 220.997H38.8761L37.4406 216.444H30.8781L29.5245 220.997H25.9972L32.3956 200.954H35.9093L42.4855 220.997ZM36.3741 213.067L34.1183 205.63L31.8898 213.067H36.3741Z" fill="#1D4ED8"/>
<path d="M303.675 211.476L306.915 211.093C307.28 213.654 308.474 214.935 310.497 214.935C311.5 214.935 312.288 214.675 312.862 214.155C313.437 213.627 313.724 212.975 313.724 212.2C313.724 211.744 313.623 211.357 313.423 211.038C313.222 210.719 312.917 210.459 312.507 210.259C312.097 210.049 311.103 209.703 309.526 209.22C308.114 208.791 307.079 208.326 306.423 207.825C305.767 207.324 305.243 206.668 304.851 205.856C304.468 205.036 304.276 204.157 304.276 203.218C304.276 202.124 304.523 201.14 305.015 200.265C305.516 199.39 306.204 198.729 307.079 198.282C307.954 197.836 309.034 197.612 310.319 197.612C312.252 197.612 313.76 198.136 314.845 199.185C315.929 200.233 316.504 201.732 316.568 203.683L313.245 203.86C313.099 202.785 312.785 202.033 312.302 201.604C311.819 201.176 311.131 200.962 310.237 200.962C309.344 200.962 308.656 201.149 308.173 201.522C307.69 201.896 307.448 202.361 307.448 202.917C307.448 203.464 307.667 203.924 308.105 204.298C308.542 204.671 309.549 205.082 311.126 205.528C312.794 206.011 313.997 206.522 314.735 207.06C315.483 207.588 316.053 208.276 316.444 209.124C316.836 209.963 317.032 210.983 317.032 212.186C317.032 213.927 316.495 215.39 315.419 216.575C314.353 217.76 312.68 218.352 310.401 218.352C306.373 218.352 304.131 216.06 303.675 211.476Z" fill="#1D4ED8"/>
<path d="M289.21 217.997V197.954H301.405V201.345H292.519V205.788H300.776V209.165H292.519V214.62H301.706V217.997H289.21Z" fill="#1D4ED8"/>
<path d="M275.265 217.997V198.118H278.573V214.62H286.831V217.997H275.265Z" fill="#1D4ED8"/>
<path d="M258.571 197.954H261.88V208.81C261.88 210.496 261.921 211.594 262.003 212.104C262.149 212.989 262.495 213.672 263.042 214.155C263.598 214.638 264.327 214.88 265.23 214.88C265.995 214.88 266.62 214.711 267.103 214.374C267.586 214.028 267.914 213.554 268.087 212.952C268.269 212.341 268.36 211.038 268.36 209.042V197.954H271.683V208.481C271.683 211.17 271.537 213.116 271.245 214.319C270.963 215.513 270.316 216.484 269.304 217.231C268.301 217.97 266.975 218.339 265.325 218.339C263.612 218.339 262.272 218.033 261.306 217.423C260.349 216.803 259.651 215.937 259.214 214.825C258.786 213.704 258.571 211.644 258.571 208.645V197.954Z" fill="#1D4ED8"/>
<path d="M252.556 210.628L255.769 211.872C255.267 214.114 254.433 215.755 253.267 216.794C252.1 217.824 250.665 218.339 248.96 218.339C246.818 218.339 245.082 217.514 243.751 215.864C242.22 213.959 241.454 211.389 241.454 208.153C241.454 204.735 242.224 202.06 243.765 200.128C245.105 198.451 246.905 197.612 249.165 197.612C251.006 197.612 252.547 198.241 253.786 199.499C254.67 200.392 255.318 201.718 255.728 203.477L252.446 204.435C252.237 203.35 251.818 202.52 251.189 201.946C250.569 201.363 249.835 201.071 248.987 201.071C247.775 201.071 246.786 201.6 246.021 202.657C245.255 203.714 244.872 205.46 244.872 207.893C244.872 210.418 245.246 212.214 245.993 213.28C246.741 214.347 247.711 214.88 248.905 214.88C249.78 214.88 250.537 214.543 251.175 213.868C251.813 213.185 252.273 212.104 252.556 210.628Z" fill="#1D4ED8"/>
<path d="M226.73 217.997V197.954H238.925V201.345H230.038V205.788H238.296V209.165H230.038V214.62H239.226V217.997H226.73Z" fill="#1D4ED8"/>
<path d="M212.784 217.997V198.118H216.093V214.62H224.351V217.997H212.784Z" fill="#1D4ED8"/>
<path d="M194.15 208.099C194.15 205.711 194.5 203.746 195.202 202.206C195.913 200.657 196.838 199.504 197.978 198.747C199.117 197.99 200.498 197.612 202.12 197.612C204.472 197.612 206.386 198.51 207.862 200.306C209.348 202.101 210.091 204.658 210.091 207.976C210.091 211.33 209.307 213.95 207.739 215.837C206.363 217.505 204.495 218.339 202.134 218.339C199.755 218.339 197.877 217.514 196.501 215.864C194.933 213.977 194.15 211.389 194.15 208.099ZM197.568 207.962C197.568 210.268 198.005 212 198.88 213.157C199.755 214.306 200.84 214.88 202.134 214.88C203.437 214.88 204.517 214.31 205.374 213.171C206.231 212.022 206.659 210.263 206.659 207.893C206.659 205.569 206.24 203.851 205.401 202.739C204.572 201.627 203.483 201.071 202.134 201.071C200.785 201.071 199.687 201.632 198.839 202.753C197.991 203.874 197.568 205.61 197.568 207.962Z" fill="#1D4ED8"/>
<path d="M175.624 217.997V197.954H180.587L183.568 211.626L186.521 197.954H191.497V217.997H188.421V202.22L185.153 217.997H181.954L178.714 202.22V217.997H175.624Z" fill="#1D4ED8"/>
<path d="M484.159 211.476L487.4 211.093C487.764 213.654 488.958 214.935 490.982 214.935C491.984 214.935 492.773 214.675 493.347 214.155C493.921 213.627 494.208 212.975 494.208 212.2C494.208 211.744 494.108 211.357 493.907 211.038C493.707 210.719 493.401 210.459 492.991 210.259C492.581 210.049 491.588 209.703 490.011 209.22C488.598 208.791 487.564 208.326 486.907 207.825C486.251 207.324 485.727 206.668 485.335 205.856C484.952 205.036 484.761 204.157 484.761 203.218C484.761 202.124 485.007 201.14 485.499 200.265C486 199.39 486.689 198.729 487.564 198.282C488.439 197.836 489.519 197.612 490.804 197.612C492.736 197.612 494.245 198.136 495.329 199.185C496.414 200.233 496.988 201.732 497.052 203.683L493.73 203.86C493.584 202.785 493.269 202.033 492.786 201.604C492.303 201.176 491.615 200.962 490.722 200.962C489.829 200.962 489.14 201.149 488.657 201.522C488.174 201.896 487.933 202.361 487.933 202.917C487.933 203.464 488.151 203.924 488.589 204.298C489.026 204.671 490.034 205.082 491.61 205.528C493.278 206.011 494.482 206.522 495.22 207.06C495.967 207.588 496.537 208.276 496.929 209.124C497.321 209.963 497.517 210.983 497.517 212.186C497.517 213.927 496.979 215.39 495.903 216.575C494.837 217.76 493.165 218.352 490.886 218.352C486.857 218.352 484.615 216.06 484.159 211.476Z" fill="#1D4ED8"/>
<path d="M465.812 217.997V197.954H470.775L473.755 211.626L476.708 197.954H481.685V217.997H478.609V202.22L475.341 217.997H472.142L468.901 202.22V217.997H465.812Z" fill="#1D4ED8"/>
<path d="M449.706 211.476L452.946 211.093C453.311 213.654 454.505 214.935 456.528 214.935C457.531 214.935 458.319 214.675 458.894 214.155C459.468 213.627 459.755 212.975 459.755 212.2C459.755 211.744 459.655 211.357 459.454 211.038C459.254 210.719 458.948 210.459 458.538 210.259C458.128 210.049 457.135 209.703 455.558 209.22C454.145 208.791 453.11 208.326 452.454 207.825C451.798 207.324 451.274 206.668 450.882 205.856C450.499 205.036 450.308 204.157 450.308 203.218C450.308 202.124 450.554 201.14 451.046 200.265C451.547 199.39 452.235 198.729 453.11 198.282C453.985 197.836 455.066 197.612 456.351 197.612C458.283 197.612 459.791 198.136 460.876 199.185C461.961 200.233 462.535 201.732 462.599 203.683L459.276 203.86C459.131 202.785 458.816 202.033 458.333 201.604C457.85 201.176 457.162 200.962 456.269 200.962C455.375 200.962 454.687 201.149 454.204 201.522C453.721 201.896 453.48 202.361 453.48 202.917C453.48 203.464 453.698 203.924 454.136 204.298C454.573 204.671 455.581 205.082 457.157 205.528C458.825 206.011 460.028 206.522 460.767 207.06C461.514 207.588 462.084 208.276 462.476 209.124C462.868 209.963 463.064 210.983 463.064 212.186C463.064 213.927 462.526 215.39 461.45 216.575C460.384 217.76 458.711 218.352 456.433 218.352C452.404 218.352 450.162 216.06 449.706 211.476Z" fill="#1D4ED8"/>
<path d="M444.046 217.997V197.954H447.355V217.997H444.046Z" fill="#1D4ED8"/>
<path d="M427.612 217.997V197.954H430.839L437.566 211.339V197.954H440.655V217.997H437.319L430.702 204.927V217.997H427.612Z" fill="#1D4ED8"/>
<path d="M425.821 217.997H422.212L420.776 213.444H414.214L412.86 217.997H409.333L415.732 197.954H419.245L425.821 217.997ZM419.71 210.067L417.454 202.63L415.226 210.067H419.71Z" fill="#1D4ED8"/>
<path d="M400.775 210.628V207.251H407.925V215.235C407.205 216.083 406.184 216.812 404.862 217.423C403.541 218.033 402.215 218.339 400.884 218.339C399.262 218.339 397.831 217.942 396.591 217.149C395.351 216.347 394.367 215.153 393.638 213.567C392.918 211.972 392.558 210.099 392.558 207.948C392.558 205.742 392.922 203.856 393.651 202.288C394.39 200.72 395.342 199.549 396.509 198.774C397.685 198 399.088 197.612 400.72 197.612C402.679 197.612 404.247 198.114 405.423 199.116C406.608 200.11 407.369 201.573 407.706 203.505L404.425 204.257C404.179 203.227 403.728 202.438 403.071 201.892C402.415 201.345 401.631 201.071 400.72 201.071C399.307 201.071 398.163 201.623 397.288 202.726C396.413 203.819 395.976 205.492 395.976 207.743C395.976 210.158 396.45 211.995 397.398 213.253C398.209 214.338 399.307 214.88 400.693 214.88C401.34 214.88 402.01 214.729 402.702 214.429C403.404 214.119 404.028 213.699 404.575 213.171V210.628H400.775Z" fill="#1D4ED8"/>
<path d="M376.562 217.997V197.954H383.548C385.334 197.954 386.61 198.136 387.376 198.501C388.142 198.856 388.771 199.481 389.263 200.374C389.755 201.258 390.001 202.32 390.001 203.56C390.001 205.127 389.623 206.39 388.866 207.347C388.119 208.304 387.053 208.905 385.667 209.151C386.378 209.662 386.966 210.222 387.431 210.833C387.896 211.435 388.529 212.519 389.331 214.087L391.327 217.997H387.376L384.97 213.636C384.104 212.059 383.516 211.074 383.206 210.683C382.896 210.282 382.568 210.008 382.222 209.862C381.875 209.707 381.319 209.63 380.554 209.63H379.87V217.997H376.562ZM379.87 206.431H382.331C383.835 206.431 384.792 206.367 385.202 206.239C385.612 206.102 385.945 205.834 386.2 205.433C386.456 205.032 386.583 204.498 386.583 203.833C386.583 203.195 386.456 202.685 386.2 202.302C385.945 201.91 385.599 201.641 385.161 201.495C384.851 201.395 383.954 201.345 382.468 201.345H379.87V206.431Z" fill="#1D4ED8"/>
<path d="M358.009 208.099C358.009 205.711 358.36 203.746 359.062 202.206C359.773 200.657 360.698 199.504 361.837 198.747C362.976 197.99 364.357 197.612 365.98 197.612C368.331 197.612 370.245 198.51 371.722 200.306C373.207 202.101 373.95 204.658 373.95 207.976C373.95 211.33 373.166 213.95 371.599 215.837C370.222 217.505 368.354 218.339 365.993 218.339C363.614 218.339 361.737 217.514 360.36 215.864C358.793 213.977 358.009 211.389 358.009 208.099ZM361.427 207.962C361.427 210.268 361.864 212 362.739 213.157C363.614 214.306 364.699 214.88 365.993 214.88C367.297 214.88 368.377 214.31 369.234 213.171C370.09 212.022 370.519 210.263 370.519 207.893C370.519 205.569 370.099 203.851 369.261 202.739C368.431 201.627 367.342 201.071 365.993 201.071C364.644 201.071 363.546 201.632 362.698 202.753C361.851 203.874 361.427 205.61 361.427 207.962Z" fill="#1D4ED8"/>
<path d="M667.866 217.476L671.107 217.093C671.471 219.654 672.665 220.935 674.689 220.935C675.691 220.935 676.48 220.675 677.054 220.155C677.628 219.627 677.915 218.975 677.915 218.2C677.915 217.744 677.815 217.357 677.614 217.038C677.414 216.719 677.109 216.459 676.698 216.259C676.288 216.049 675.295 215.703 673.718 215.22C672.305 214.791 671.271 214.326 670.614 213.825C669.958 213.324 669.434 212.668 669.042 211.856C668.659 211.036 668.468 210.157 668.468 209.218C668.468 208.124 668.714 207.14 669.206 206.265C669.707 205.39 670.396 204.729 671.271 204.282C672.146 203.836 673.226 203.612 674.511 203.612C676.443 203.612 677.952 204.136 679.036 205.185C680.121 206.233 680.695 207.732 680.759 209.683L677.437 209.86C677.291 208.785 676.976 208.033 676.493 207.604C676.01 207.176 675.322 206.962 674.429 206.962C673.536 206.962 672.847 207.149 672.364 207.522C671.881 207.896 671.64 208.361 671.64 208.917C671.64 209.464 671.859 209.924 672.296 210.298C672.734 210.671 673.741 211.082 675.318 211.528C676.985 212.011 678.189 212.522 678.927 213.06C679.674 213.588 680.244 214.276 680.636 215.124C681.028 215.963 681.224 216.983 681.224 218.186C681.224 219.927 680.686 221.39 679.61 222.575C678.544 223.76 676.872 224.352 674.593 224.352C670.564 224.352 668.322 222.06 667.866 217.476Z" fill="#1D4ED8"/>
<path d="M653.401 223.997V203.954H665.597V207.345H656.71V211.788H664.968V215.165H656.71V220.62H665.898V223.997H653.401Z" fill="#1D4ED8"/>
<path d="M643.066 223.997V207.345H638.185V203.954H651.241V207.345H646.374V223.997H643.066Z" fill="#1D4ED8"/>
<path d="M639.306 223.997H635.696L634.261 219.444H627.698L626.345 223.997H622.818L629.216 203.954H632.73L639.306 223.997ZM633.194 216.067L630.939 208.63L628.71 216.067H633.194Z" fill="#1D4ED8"/>
<path d="M610.554 223.997V204.118H613.862V220.62H622.12V223.997H610.554Z" fill="#1D4ED8"/>
<path d="M595.146 223.997V203.954H600.478C602.465 203.954 603.763 204.05 604.374 204.241C605.349 204.551 606.151 205.212 606.78 206.224C607.418 207.235 607.737 208.539 607.737 210.134C607.737 211.583 607.464 212.8 606.917 213.784C606.37 214.759 605.687 215.448 604.866 215.849C604.046 216.24 602.633 216.436 600.628 216.436H598.454V223.997H595.146ZM598.454 207.345V213.032H600.286C601.517 213.032 602.351 212.946 602.788 212.772C603.235 212.599 603.599 212.289 603.882 211.843C604.165 211.387 604.306 210.831 604.306 210.175C604.306 209.509 604.16 208.949 603.868 208.493C603.577 208.037 603.217 207.732 602.788 207.577C602.36 207.422 601.453 207.345 600.068 207.345H598.454Z" fill="#1D4ED8"/>
<path d="M575.964 223.997V203.954H580.927L583.907 217.626L586.86 203.954H591.837V223.997H588.761V208.22L585.493 223.997H582.294L579.054 208.22V223.997H575.964Z" fill="#1D4ED8"/>
<path d="M560.706 223.997V203.954H572.901V207.345H564.015V211.788H572.273V215.165H564.015V220.62H573.202V223.997H560.706Z" fill="#1D4ED8"/>
<path d="M550.37 223.997V207.345H545.489V203.954H558.546V207.345H553.679V223.997H550.37Z" fill="#1D4ED8"/>
<path d="M827.214 217.476L830.454 217.093C830.819 219.654 832.013 220.935 834.036 220.935C835.039 220.935 835.827 220.675 836.401 220.155C836.976 219.627 837.263 218.975 837.263 218.2C837.263 217.744 837.163 217.357 836.962 217.038C836.762 216.719 836.456 216.459 836.046 216.259C835.636 216.049 834.642 215.703 833.066 215.22C831.653 214.791 830.618 214.326 829.962 213.825C829.306 213.324 828.782 212.668 828.39 211.856C828.007 211.036 827.816 210.157 827.816 209.218C827.816 208.124 828.062 207.14 828.554 206.265C829.055 205.39 829.743 204.729 830.618 204.282C831.493 203.836 832.573 203.612 833.859 203.612C835.791 203.612 837.299 204.136 838.384 205.185C839.469 206.233 840.043 207.732 840.107 209.683L836.784 209.86C836.638 208.785 836.324 208.033 835.841 207.604C835.358 207.176 834.67 206.962 833.776 206.962C832.883 206.962 832.195 207.149 831.712 207.522C831.229 207.896 830.987 208.361 830.987 208.917C830.987 209.464 831.206 209.924 831.644 210.298C832.081 210.671 833.088 211.082 834.665 211.528C836.333 212.011 837.536 212.522 838.275 213.06C839.022 213.588 839.592 214.276 839.984 215.124C840.375 215.963 840.571 216.983 840.571 218.186C840.571 219.927 840.034 221.39 838.958 222.575C837.892 223.76 836.219 224.352 833.941 224.352C829.912 224.352 827.67 222.06 827.214 217.476Z" fill="#1D4ED8"/>
<path d="M812.749 223.997V203.954H824.944V207.345H816.058V211.788H824.316V215.165H816.058V220.62H825.245V223.997H812.749Z" fill="#1D4ED8"/>
<path d="M802.509 216.628V213.251H809.659V221.235C808.939 222.083 807.918 222.812 806.597 223.423C805.275 224.033 803.949 224.339 802.618 224.339C800.996 224.339 799.565 223.942 798.325 223.149C797.086 222.347 796.101 221.153 795.372 219.567C794.652 217.972 794.292 216.099 794.292 213.948C794.292 211.742 794.657 209.856 795.386 208.288C796.124 206.72 797.077 205.549 798.243 204.774C799.419 204 800.823 203.612 802.454 203.612C804.414 203.612 805.982 204.114 807.157 205.116C808.342 206.11 809.103 207.573 809.441 209.505L806.159 210.257C805.913 209.227 805.462 208.438 804.806 207.892C804.15 207.345 803.366 207.071 802.454 207.071C801.041 207.071 799.898 207.623 799.023 208.726C798.148 209.819 797.71 211.492 797.71 213.743C797.71 216.158 798.184 217.995 799.132 219.253C799.943 220.338 801.041 220.88 802.427 220.88C803.074 220.88 803.744 220.729 804.437 220.429C805.138 220.119 805.763 219.699 806.31 219.171V216.628H802.509Z" fill="#1D4ED8"/>
<path d="M793.103 223.997H789.493L788.058 219.444H781.495L780.142 223.997H776.614L783.013 203.954H786.526L793.103 223.997ZM786.991 216.067L784.735 208.63L782.507 216.067H786.991Z" fill="#1D4ED8"/>
<path d="M764.665 223.997V203.954H769.997C771.984 203.954 773.283 204.05 773.894 204.241C774.869 204.551 775.671 205.212 776.3 206.224C776.938 207.235 777.257 208.539 777.257 210.134C777.257 211.583 776.984 212.8 776.437 213.784C775.89 214.759 775.206 215.448 774.386 215.849C773.566 216.24 772.153 216.436 770.148 216.436H767.974V223.997H764.665ZM767.974 207.345V213.032H769.806C771.036 213.032 771.87 212.946 772.308 212.772C772.754 212.599 773.119 212.289 773.401 211.843C773.684 211.387 773.825 210.831 773.825 210.175C773.825 209.509 773.679 208.949 773.388 208.493C773.096 208.037 772.736 207.732 772.308 207.577C771.879 207.422 770.972 207.345 769.587 207.345H767.974Z" fill="#1D4ED8"/>
</svg>
